<svg width="847" height="154" viewBox="0 0 847 154" fill="none" xmlns="http://www.w3.org/2000/svg">
<path d="M23.5 73.9727C18.3568 70.0013 17.3802 60.4961 20.5703 45.457L20.8633 43.9922C23.5977 31.0365 26.9505 21.9544 30.9219 16.7461C38.1484 7.17578 49.2161 2.39062 64.125 2.39062H111.098C126.072 2.39062 135.089 7.20833 138.148 16.8438C139.906 22.0521 139.418 31.1341 136.684 44.0898L136.391 45.3594C133.201 60.5286 128.188 70.0664 121.352 73.9727C127.602 79.5065 128.969 90.5417 125.453 107.078L125.16 108.25C122.296 121.922 118.812 131.525 114.711 137.059C107.159 147.02 95.5703 152 79.9453 152H31.7031C16.0781 152 6.63802 147.02 3.38281 137.059C1.5599 131.655 2.11328 122.117 5.04297 108.445L5.33594 106.883C9.30729 88.263 15.362 77.293 23.5 73.9727ZM59.0469 26.1211C53.5781 26.1211 50.3555 26.7721 49.3789 28.0742C48.0768 29.7669 46.4818 35.0404 44.5938 43.8945L44.3008 45.5547C42.4128 54.4089 41.7292 59.6823 42.25 61.375C42.7057 62.612 45.668 63.2305 51.1367 63.2305H98.1094C103.643 63.2305 106.898 62.5794 107.875 61.2773C109.177 59.5846 110.772 54.2786 112.66 45.3594L112.953 44.0898C114.841 35.1706 115.525 29.832 115.004 28.0742C114.548 26.7721 111.553 26.1211 106.02 26.1211H59.0469ZM45.5703 86.9609C39.3854 86.9609 35.6419 87.8073 34.3398 89.5C32.8424 91.388 31.0521 97.1823 28.9688 106.883L28.6758 108.445C26.5924 118.081 25.9089 123.875 26.625 125.828C27.1458 127.521 30.4987 128.367 36.6836 128.367H84.9258C91.1107 128.367 94.8542 127.488 96.1562 125.73C97.7188 123.777 99.5091 117.951 101.527 108.25L101.82 107.078C103.904 97.3125 104.587 91.4531 103.871 89.5C103.35 87.8073 99.9974 86.9609 93.8125 86.9609H45.5703ZM196.547 153.953C169.268 153.953 152.862 147.15 147.328 133.543C143.812 124.949 144.887 107.306 150.551 80.6133L152.016 73.7773C157.68 47.1497 164.092 29.5065 171.254 20.8477C178.025 12.7747 187.009 7.14323 198.207 3.95312C206.345 1.60938 216.664 0.4375 229.164 0.4375C256.443 0.4375 272.816 7.24089 278.285 20.8477C281.801 29.4414 280.727 47.0846 275.062 73.7773L273.598 80.6133C267.934 107.306 261.521 124.949 254.359 133.543C247.654 141.681 238.669 147.345 227.406 150.535C219.333 152.814 209.047 153.953 196.547 153.953ZM224.086 24.168C205.596 24.168 193.812 27.2279 188.734 33.3477C184.763 38.1003 180.401 51.5768 175.648 73.7773L174.184 80.6133C169.496 102.814 168.129 116.323 170.082 121.141C172.556 127.26 183.038 130.32 201.527 130.32C220.017 130.32 231.801 127.26 236.879 121.141C240.915 116.323 245.277 102.814 249.965 80.6133L251.43 73.7773C256.182 51.5768 257.549 38.1003 255.531 33.3477C253.057 27.2279 242.576 24.168 224.086 24.168ZM339.125 153.953C311.846 153.953 295.44 147.15 289.906 133.543C286.391 124.949 287.465 107.306 293.129 80.6133L294.594 73.7773C300.258 47.1497 306.671 29.5065 313.832 20.8477C320.603 12.7747 329.587 7.14323 340.785 3.95312C348.923 1.60938 359.242 0.4375 371.742 0.4375C399.021 0.4375 415.395 7.24089 420.863 20.8477C424.379 29.4414 423.305 47.0846 417.641 73.7773L416.176 80.6133C410.512 107.306 404.099 124.949 396.938 133.543C390.232 141.681 381.247 147.345 369.984 150.535C361.911 152.814 351.625 153.953 339.125 153.953ZM366.664 24.168C348.174 24.168 336.391 27.2279 331.312 33.3477C327.341 38.1003 322.979 51.5768 318.227 73.7773L316.762 80.6133C312.074 102.814 310.707 116.323 312.66 121.141C315.134 127.26 325.616 130.32 344.105 130.32C362.595 130.32 374.379 127.26 379.457 121.141C383.493 116.323 387.855 102.814 392.543 80.6133L394.008 73.7773C398.76 51.5768 400.128 38.1003 398.109 33.3477C395.635 27.2279 385.154 24.168 366.664 24.168Z" fill="#175D8B"/>
<path d="M523.988 111.961H523.891C521.091 124.005 517.12 132.957 511.977 138.816C503.122 148.908 488.344 153.953 467.641 153.953C447.003 153.953 434.405 148.908 429.848 138.816C426.918 132.371 427.439 119.806 431.41 101.121L432.582 95.2617C436.553 76.5768 441.404 64.0117 447.133 57.5664C455.922 47.4753 470.635 42.4297 491.273 42.4297C501.69 42.4297 509.014 45.3919 513.246 51.3164L523.695 2.39062H547.328L523.988 111.961ZM486.293 66.0625C474.118 66.0625 466.697 67.5924 464.027 70.6523C461.814 73.1263 459.21 81.3294 456.215 95.2617L455.043 101.121C452.048 115.053 451.137 123.257 452.309 125.73C453.676 128.79 460.447 130.32 472.621 130.32C484.861 130.32 492.315 128.79 494.984 125.73C497.133 123.257 499.542 115.77 502.211 103.27L504.359 93.2109C507.029 80.6458 507.81 73.1263 506.703 70.6523C505.336 67.5924 498.533 66.0625 486.293 66.0625ZM582.094 153.953C561.456 153.953 548.826 148.94 544.203 138.914C541.339 132.469 541.859 119.936 545.766 101.316L547.133 95.0664C551.104 76.4466 555.922 63.9141 561.586 57.4688C570.375 47.4427 585.089 42.4297 605.727 42.4297C626.365 42.4297 639.027 47.4753 643.715 57.5664C646.514 64.0117 645.798 77.2279 641.566 97.2148L639.223 108.348H568.031C566.273 117.983 565.85 123.777 566.762 125.73C568.129 128.79 574.9 130.32 587.074 130.32C596.514 130.32 603.057 129.409 606.703 127.586C608.917 126.479 610.642 124.363 611.879 121.238L634.145 125.73C629.652 136.928 622.23 144.741 611.879 149.168C604.457 152.358 594.529 153.953 582.094 153.953ZM619.789 88.0352C621.547 78.4648 622.003 72.6706 621.156 70.6523C619.789 67.5924 612.986 66.0625 600.746 66.0625C588.572 66.0625 581.15 67.5924 578.48 70.6523C576.658 72.6706 574.607 78.4648 572.328 88.0352H619.789ZM744.398 152H720.766L732.777 95.2617C735.772 81.3294 736.716 73.1263 735.609 70.6523C734.242 67.5924 727.439 66.0625 715.199 66.0625C703.025 66.0625 695.603 67.5924 692.934 70.6523C690.72 73.1263 688.116 81.3294 685.121 95.2617L673.109 152H649.477L661.488 95.2617C665.46 76.5768 670.31 64.0117 676.039 57.5664C684.828 47.4753 699.542 42.4297 720.18 42.4297C740.818 42.4297 753.48 47.4753 758.168 57.5664C760.967 64.0117 760.382 76.5768 756.41 95.2617L744.398 152ZM841.566 68.0156H807.387L800.746 99.168C797.816 113.1 796.905 121.303 798.012 123.777C799.379 126.837 806.15 128.367 818.324 128.367H830.141L825.16 152H813.344C792.706 152 780.108 146.954 775.551 136.863C772.621 130.418 773.142 117.853 777.113 99.168L797.719 2.39062H821.352L812.367 44.3828H846.547L841.566 68.0156Z" fill="#E14255"/>
</svg>
