<svg width="847" height="154" viewBox="0 0 847 154" fill="none" xmlns="http://www.w3.org/2000/svg">
<mask id="path-1-inside-1_8_2" fill="white">
<path d="M23.5 73.9727C18.3568 70.0013 17.3802 60.4961 20.5703 45.457L20.8633 43.9922C23.5977 31.0365 26.9505 21.9544 30.9219 16.7461C38.1484 7.17578 49.2161 2.39062 64.125 2.39062H111.098C126.072 2.39062 135.089 7.20833 138.148 16.8438C139.906 22.0521 139.418 31.1341 136.684 44.0898L136.391 45.3594C133.201 60.5286 128.188 70.0664 121.352 73.9727C127.602 79.5065 128.969 90.5417 125.453 107.078L125.16 108.25C122.296 121.922 118.812 131.525 114.711 137.059C107.159 147.02 95.5703 152 79.9453 152H31.7031C16.0781 152 6.63802 147.02 3.38281 137.059C1.5599 131.655 2.11328 122.117 5.04297 108.445L5.33594 106.883C9.30729 88.263 15.362 77.293 23.5 73.9727ZM59.0469 26.1211C53.5781 26.1211 50.3555 26.7721 49.3789 28.0742C48.0768 29.7669 46.4818 35.0404 44.5938 43.8945L44.3008 45.5547C42.4128 54.4089 41.7292 59.6823 42.25 61.375C42.7057 62.612 45.668 63.2305 51.1367 63.2305H98.1094C103.643 63.2305 106.898 62.5794 107.875 61.2773C109.177 59.5846 110.772 54.2786 112.66 45.3594L112.953 44.0898C114.841 35.1706 115.525 29.832 115.004 28.0742C114.548 26.7721 111.553 26.1211 106.02 26.1211H59.0469ZM45.5703 86.9609C39.3854 86.9609 35.6419 87.8073 34.3398 89.5C32.8424 91.388 31.0521 97.1823 28.9688 106.883L28.6758 108.445C26.5924 118.081 25.9089 123.875 26.625 125.828C27.1458 127.521 30.4987 128.367 36.6836 128.367H84.9258C91.1107 128.367 94.8542 127.488 96.1562 125.73C97.7188 123.777 99.5091 117.951 101.527 108.25L101.82 107.078C103.904 97.3125 104.587 91.4531 103.871 89.5C103.35 87.8073 99.9974 86.9609 93.8125 86.9609H45.5703ZM196.547 153.953C169.268 153.953 152.862 147.15 147.328 133.543C143.812 124.949 144.887 107.306 150.551 80.6133L152.016 73.7773C157.68 47.1497 164.092 29.5065 171.254 20.8477C178.025 12.7747 187.009 7.14323 198.207 3.95312C206.345 1.60938 216.664 0.4375 229.164 0.4375C256.443 0.4375 272.816 7.24089 278.285 20.8477C281.801 29.4414 280.727 47.0846 275.062 73.7773L273.598 80.6133C267.934 107.306 261.521 124.949 254.359 133.543C247.654 141.681 238.669 147.345 227.406 150.535C219.333 152.814 209.047 153.953 196.547 153.953ZM224.086 24.168C205.596 24.168 193.812 27.2279 188.734 33.3477C184.763 38.1003 180.401 51.5768 175.648 73.7773L174.184 80.6133C169.496 102.814 168.129 116.323 170.082 121.141C172.556 127.26 183.038 130.32 201.527 130.32C220.017 130.32 231.801 127.26 236.879 121.141C240.915 116.323 245.277 102.814 249.965 80.6133L251.43 73.7773C256.182 51.5768 257.549 38.1003 255.531 33.3477C253.057 27.2279 242.576 24.168 224.086 24.168ZM339.125 153.953C311.846 153.953 295.44 147.15 289.906 133.543C286.391 124.949 287.465 107.306 293.129 80.6133L294.594 73.7773C300.258 47.1497 306.671 29.5065 313.832 20.8477C320.603 12.7747 329.587 7.14323 340.785 3.95312C348.923 1.60938 359.242 0.4375 371.742 0.4375C399.021 0.4375 415.395 7.24089 420.863 20.8477C424.379 29.4414 423.305 47.0846 417.641 73.7773L416.176 80.6133C410.512 107.306 404.099 124.949 396.938 133.543C390.232 141.681 381.247 147.345 369.984 150.535C361.911 152.814 351.625 153.953 339.125 153.953ZM366.664 24.168C348.174 24.168 336.391 27.2279 331.312 33.3477C327.341 38.1003 322.979 51.5768 318.227 73.7773L316.762 80.6133C312.074 102.814 310.707 116.323 312.66 121.141C315.134 127.26 325.616 130.32 344.105 130.32C362.595 130.32 374.379 127.26 379.457 121.141C383.493 116.323 387.855 102.814 392.543 80.6133L394.008 73.7773C398.76 51.5768 400.128 38.1003 398.109 33.3477C395.635 27.2279 385.154 24.168 366.664 24.168Z"/>
<path d="M523.988 111.961H523.891C521.091 124.005 517.12 132.957 511.977 138.816C503.122 148.908 488.344 153.953 467.641 153.953C447.003 153.953 434.405 148.908 429.848 138.816C426.918 132.371 427.439 119.806 431.41 101.121L432.582 95.2617C436.553 76.5768 441.404 64.0117 447.133 57.5664C455.922 47.4753 470.635 42.4297 491.273 42.4297C501.69 42.4297 509.014 45.3919 513.246 51.3164L523.695 2.39062H547.328L523.988 111.961ZM486.293 66.0625C474.118 66.0625 466.697 67.5924 464.027 70.6523C461.814 73.1263 459.21 81.3294 456.215 95.2617L455.043 101.121C452.048 115.053 451.137 123.257 452.309 125.73C453.676 128.79 460.447 130.32 472.621 130.32C484.861 130.32 492.315 128.79 494.984 125.73C497.133 123.257 499.542 115.77 502.211 103.27L504.359 93.2109C507.029 80.6458 507.81 73.1263 506.703 70.6523C505.336 67.5924 498.533 66.0625 486.293 66.0625ZM582.094 153.953C561.456 153.953 548.826 148.94 544.203 138.914C541.339 132.469 541.859 119.936 545.766 101.316L547.133 95.0664C551.104 76.4466 555.922 63.9141 561.586 57.4688C570.375 47.4427 585.089 42.4297 605.727 42.4297C626.365 42.4297 639.027 47.4753 643.715 57.5664C646.514 64.0117 645.798 77.2279 641.566 97.2148L639.223 108.348H568.031C566.273 117.983 565.85 123.777 566.762 125.73C568.129 128.79 574.9 130.32 587.074 130.32C596.514 130.32 603.057 129.409 606.703 127.586C608.917 126.479 610.642 124.363 611.879 121.238L634.145 125.73C629.652 136.928 622.23 144.741 611.879 149.168C604.457 152.358 594.529 153.953 582.094 153.953ZM619.789 88.0352C621.547 78.4648 622.003 72.6706 621.156 70.6523C619.789 67.5924 612.986 66.0625 600.746 66.0625C588.572 66.0625 581.15 67.5924 578.48 70.6523C576.658 72.6706 574.607 78.4648 572.328 88.0352H619.789ZM744.398 152H720.766L732.777 95.2617C735.772 81.3294 736.716 73.1263 735.609 70.6523C734.242 67.5924 727.439 66.0625 715.199 66.0625C703.025 66.0625 695.603 67.5924 692.934 70.6523C690.72 73.1263 688.116 81.3294 685.121 95.2617L673.109 152H649.477L661.488 95.2617C665.46 76.5768 670.31 64.0117 676.039 57.5664C684.828 47.4753 699.542 42.4297 720.18 42.4297C740.818 42.4297 753.48 47.4753 758.168 57.5664C760.967 64.0117 760.382 76.5768 756.41 95.2617L744.398 152ZM841.566 68.0156H807.387L800.746 99.168C797.816 113.1 796.905 121.303 798.012 123.777C799.379 126.837 806.15 128.367 818.324 128.367H830.141L825.16 152H813.344C792.706 152 780.108 146.954 775.551 136.863C772.621 130.418 773.142 117.853 777.113 99.168L797.719 2.39062H821.352L812.367 44.3828H846.547L841.566 68.0156Z"/>
</mask>
<path d="M23.5 73.9727L23.8778 74.8986L25.4857 74.2425L24.1112 73.1812L23.5 73.9727ZM20.5703 45.457L21.5486 45.6645L21.5509 45.6531L20.5703 45.457ZM20.8633 43.9922L19.8848 43.7857L19.8827 43.7961L20.8633 43.9922ZM30.9219 16.7461L31.7171 17.3524L31.7199 17.3487L30.9219 16.7461ZM138.148 16.8438L137.195 17.1464L137.198 17.155L137.201 17.1635L138.148 16.8438ZM136.684 44.0898L137.658 44.3147L137.66 44.3055L137.662 44.2963L136.684 44.0898ZM136.391 45.3594L135.416 45.1345L135.414 45.144L135.412 45.1536L136.391 45.3594ZM121.352 73.9727L120.855 73.1044L119.644 73.7966L120.689 74.7214L121.352 73.9727ZM125.453 107.078L126.423 107.321L126.428 107.303L126.431 107.286L125.453 107.078ZM125.16 108.25L124.19 108.007L124.185 108.026L124.181 108.045L125.16 108.25ZM114.711 137.059L115.508 137.663L115.514 137.654L114.711 137.059ZM3.38281 137.059L4.33339 136.748L4.33035 136.739L3.38281 137.059ZM5.04297 108.445L6.02077 108.655L6.02347 108.642L6.02584 108.63L5.04297 108.445ZM5.33594 106.883L4.35794 106.674L4.35535 106.686L4.35307 106.699L5.33594 106.883ZM49.3789 28.0742L50.1716 28.684L50.1789 28.6742L49.3789 28.0742ZM44.5938 43.8945L43.6157 43.686L43.612 43.7033L43.609 43.7207L44.5938 43.8945ZM44.3008 45.5547L45.2788 45.7632L45.2825 45.7459L45.2856 45.7285L44.3008 45.5547ZM42.25 61.375L41.2942 61.6691L41.3022 61.6951L41.3117 61.7207L42.25 61.375ZM107.875 61.2773L107.082 60.6676L107.075 60.6773L107.875 61.2773ZM112.66 45.3594L111.686 45.1345L111.684 45.1434L111.682 45.1523L112.66 45.3594ZM112.953 44.0898L113.928 44.3147L113.93 44.3058L113.931 44.2969L112.953 44.0898ZM115.004 28.0742L115.963 27.7901L115.956 27.7668L115.948 27.7439L115.004 28.0742ZM34.3398 89.5L35.1233 90.1214L35.1279 90.1156L35.1325 90.1097L34.3398 89.5ZM28.9688 106.883L27.991 106.673L27.9883 106.686L27.9859 106.699L28.9688 106.883ZM28.6758 108.445L29.6532 108.657L29.6561 108.643L29.6587 108.63L28.6758 108.445ZM26.625 125.828L27.5808 125.534L27.573 125.509L27.5639 125.484L26.625 125.828ZM96.1562 125.73L95.3754 125.106L95.3638 125.12L95.3527 125.135L96.1562 125.73ZM101.527 108.25L100.557 108.007L100.552 108.027L100.548 108.046L101.527 108.25ZM101.82 107.078L102.79 107.321L102.795 107.304L102.798 107.287L101.82 107.078ZM103.871 89.5L102.915 89.7941L102.923 89.8194L102.932 89.8443L103.871 89.5ZM23.5 73.9727L24.1112 73.1812C21.8411 71.4283 20.3784 68.3718 19.9049 63.763C19.4317 59.1573 19.9636 53.1363 21.5485 45.6645L20.5703 45.457L19.5921 45.2495C17.9869 52.8168 17.412 59.0679 17.9154 63.9674C18.4185 68.8639 20.0156 72.5456 22.8888 74.7642L23.5 73.9727ZM20.5703 45.457L21.5509 45.6531L21.8439 44.1883L20.8633 43.9922L19.8827 43.7961L19.5897 45.2609L20.5703 45.457ZM20.8633 43.9922L21.8417 44.1987C24.5705 31.2694 27.8881 22.3741 31.7171 17.3524L30.9219 16.7461L30.1267 16.1398C26.013 21.5348 22.6248 30.8035 19.8848 43.7857L20.8633 43.9922ZM30.9219 16.7461L31.7199 17.3487C38.7117 8.08927 49.4451 3.39062 64.125 3.39062V2.39062V1.39062C48.9872 1.39062 37.5851 6.26229 30.1238 16.1435L30.9219 16.7461ZM64.125 2.39062V3.39062H111.098V2.39062V1.39062H64.125V2.39062ZM111.098 2.39062V3.39062C118.491 3.39062 124.308 4.58219 128.62 6.88591C132.901 9.17341 135.745 12.5804 137.195 17.1464L138.148 16.8438L139.102 16.5411C137.492 11.4717 134.298 7.65211 129.562 5.12191C124.857 2.60791 118.678 1.39062 111.098 1.39062V2.39062ZM138.148 16.8438L137.201 17.1635C138.021 19.5943 138.343 23.0214 138.102 27.5078C137.862 31.9801 137.066 37.4353 135.705 43.8833L136.684 44.0898L137.662 44.2963C139.036 37.7887 139.851 32.225 140.099 27.6152C140.346 23.0196 140.033 19.3016 139.096 16.524L138.148 16.8438ZM136.684 44.0898L135.709 43.865L135.416 45.1345L136.391 45.3594L137.365 45.5842L137.658 44.3147L136.684 44.0898ZM136.391 45.3594L135.412 45.1536C132.23 60.2844 127.289 69.428 120.855 73.1044L121.352 73.9727L121.848 74.8409C129.086 70.7048 134.171 60.7729 137.369 45.5652L136.391 45.3594ZM121.352 73.9727L120.689 74.7214C123.578 77.2796 125.408 81.1651 126.072 86.5224C126.737 91.8879 126.22 98.6601 124.475 106.87L125.453 107.078L126.431 107.286C128.201 98.9597 128.759 91.9461 128.057 86.2765C127.353 80.5986 125.375 76.1995 122.014 73.224L121.352 73.9727ZM125.453 107.078L124.483 106.836L124.19 108.007L125.16 108.25L126.13 108.493L126.423 107.321L125.453 107.078ZM125.16 108.25L124.181 108.045C121.322 121.691 117.873 131.113 113.908 136.463L114.711 137.059L115.514 137.654C119.752 131.937 123.269 122.152 126.139 108.455L125.16 108.25ZM114.711 137.059L113.914 136.454C106.598 146.104 95.344 151 79.9453 151V152V153C95.7966 153 107.72 147.935 115.508 137.663L114.711 137.059ZM79.9453 152V151H31.7031V152V153H79.9453V152ZM31.7031 152V151C23.9833 151 17.8959 149.768 13.3709 147.38C8.87582 145.009 5.87862 141.477 4.33334 136.748L3.38281 137.059L2.43228 137.369C4.14221 142.602 7.49267 146.54 12.4377 149.149C17.3528 151.742 23.798 153 31.7031 153V152ZM3.38281 137.059L4.33035 136.739C3.47842 134.214 3.15538 130.626 3.42899 125.91C3.70171 121.21 4.5622 115.461 6.02077 108.655L5.04297 108.445L4.06517 108.236C2.59405 115.101 1.71301 120.957 1.43234 125.795C1.15256 130.617 1.46429 134.5 2.43528 137.378L3.38281 137.059ZM5.04297 108.445L6.02584 108.63L6.31881 107.067L5.33594 106.883L4.35307 106.699L4.0601 108.261L5.04297 108.445ZM5.33594 106.883L6.31394 107.091C8.28859 97.8332 10.7689 90.5403 13.731 85.1736C16.6938 79.8054 20.0943 76.4422 23.8778 74.8986L23.5 73.9727L23.1222 73.0468C18.7677 74.8234 15.0718 78.6054 11.98 84.2072C8.88732 89.8106 6.35464 97.3126 4.35794 106.674L5.33594 106.883ZM59.0469 26.1211V25.1211C56.2835 25.1211 54.0354 25.2847 52.3303 25.6292C50.687 25.9612 49.3053 26.5057 48.5789 27.4742L49.3789 28.0742L50.1789 28.6742C50.4291 28.3406 51.147 27.9086 52.7263 27.5896C54.2439 27.283 56.3415 27.1211 59.0469 27.1211V26.1211ZM49.3789 28.0742L48.5863 27.4645C47.8096 28.4742 47.0429 30.3842 46.2489 33.0093C45.4398 35.6841 44.5624 39.2465 43.6157 43.686L44.5938 43.8945L45.5718 44.1031C46.5131 39.6884 47.3772 36.187 48.1632 33.5883C48.9643 30.94 49.6461 29.367 50.1715 28.6839L49.3789 28.0742ZM44.5938 43.8945L43.609 43.7207L43.316 45.3809L44.3008 45.5547L45.2856 45.7285L45.5785 44.0683L44.5938 43.8945ZM44.3008 45.5547L43.3228 45.3461C42.3764 49.7841 41.7272 53.3461 41.3804 56.0218C41.207 57.359 41.107 58.4916 41.0855 59.4107C41.0646 60.306 41.1148 61.086 41.2942 61.6691L42.25 61.375L43.2058 61.0809C43.1248 60.8176 43.0652 60.3037 43.0849 59.4574C43.1041 58.635 43.1953 57.5785 43.3638 56.2789C43.7005 53.6812 44.3371 50.1794 45.2788 45.7632L44.3008 45.5547ZM42.25 61.375L41.3117 61.7207C41.5416 62.3449 42.043 62.7716 42.5847 63.0656C43.1312 63.3623 43.8199 63.5807 44.6091 63.7455C46.1908 64.0757 48.3792 64.2305 51.1367 64.2305V63.2305V62.2305C48.4255 62.2305 46.3984 62.076 45.0179 61.7877C44.3259 61.6432 43.8469 61.4751 43.5389 61.3079C43.3881 61.2261 43.2973 61.1546 43.2455 61.1028C43.2204 61.0776 43.206 61.0587 43.1982 61.047C43.1907 61.0356 43.1885 61.0299 43.1883 61.0293L42.25 61.375ZM51.1367 63.2305V64.2305H98.1094V63.2305V62.2305H51.1367V63.2305ZM98.1094 63.2305V64.2305C100.905 64.2305 103.177 64.0669 104.897 63.7228C106.554 63.3914 107.947 62.848 108.675 61.8773L107.875 61.2773L107.075 60.6773C106.826 61.0088 106.104 61.4419 104.505 61.7616C102.97 62.0685 100.848 62.2305 98.1094 62.2305V63.2305ZM107.875 61.2773L108.668 61.8871C109.445 60.8763 110.212 58.9567 111.006 56.3162C111.814 53.6252 112.692 50.0384 113.638 45.5665L112.66 45.3594L111.682 45.1523C110.74 49.5996 109.876 53.1255 109.09 55.7404C108.289 58.4059 107.607 59.9856 107.082 60.6676L107.875 61.2773ZM112.66 45.3594L113.635 45.5842L113.928 44.3147L112.953 44.0898L111.979 43.865L111.686 45.1345L112.66 45.3594ZM112.953 44.0898L113.931 44.2969C114.878 39.8262 115.527 36.2317 115.874 33.5235C116.047 32.17 116.147 31.0216 116.168 30.0869C116.189 29.1741 116.139 28.3835 115.963 27.7901L115.004 28.0742L114.045 28.3583C114.13 28.6439 114.189 29.1798 114.169 30.041C114.15 30.8804 114.058 31.9537 113.89 33.2695C113.553 35.8998 112.916 39.4342 111.975 43.8828L112.953 44.0898ZM115.004 28.0742L115.948 27.7439C115.725 27.1073 115.23 26.6616 114.679 26.3495C114.126 26.0365 113.428 25.806 112.628 25.6322C111.027 25.284 108.811 25.1211 106.02 25.1211V26.1211V27.1211C108.762 27.1211 110.811 27.2837 112.204 27.5866C112.901 27.7383 113.384 27.9146 113.693 28.09C114.005 28.2662 114.055 28.3901 114.06 28.4046L115.004 28.0742ZM106.02 26.1211V25.1211H59.0469V26.1211V27.1211H106.02V26.1211ZM45.5703 86.9609V85.9609C42.4428 85.9609 39.8778 86.174 37.9035 86.6203C35.9658 87.0584 34.4163 87.7604 33.5472 88.8903L34.3398 89.5L35.1325 90.1097C35.5654 89.5469 36.5387 88.9794 38.3445 88.5711C40.1137 88.1711 42.5129 87.9609 45.5703 87.9609V86.9609ZM34.3398 89.5L33.5563 88.8786C32.6773 89.987 31.8111 92.0779 30.9186 94.9665C30.0111 97.9036 29.0355 101.809 27.991 106.673L28.9688 106.883L29.9465 107.093C30.9853 102.256 31.9466 98.4141 32.8295 95.5569C33.7273 92.6512 34.505 90.901 35.1233 90.1214L34.3398 89.5ZM28.9688 106.883L27.9859 106.699L27.6929 108.261L28.6758 108.445L29.6587 108.63L29.9516 107.067L28.9688 106.883ZM28.6758 108.445L27.6984 108.234C26.6539 113.065 25.9547 116.957 25.6075 119.9C25.4339 121.371 25.346 122.624 25.3504 123.647C25.3546 124.65 25.4463 125.518 25.6861 126.172L26.625 125.828L27.5639 125.484C27.4457 125.161 27.3543 124.573 27.3503 123.639C27.3465 122.726 27.4254 121.561 27.5937 120.135C27.9301 117.283 28.6144 113.461 29.6532 108.657L28.6758 108.445ZM26.625 125.828L25.6692 126.122C26.0999 127.522 27.5777 128.271 29.2855 128.702C31.0813 129.155 33.5625 129.367 36.6836 129.367V128.367V127.367C33.6198 127.367 31.3322 127.156 29.775 126.763C28.13 126.348 27.671 125.827 27.5808 125.534L26.625 125.828ZM36.6836 128.367V129.367H84.9258V128.367V127.367H36.6836V128.367ZM84.9258 128.367V129.367C88.0547 129.367 90.6228 129.146 92.6006 128.682C94.5452 128.225 96.0948 127.493 96.9598 126.326L96.1562 125.73L95.3527 125.135C94.9156 125.725 93.9424 126.312 92.1435 126.734C90.3778 127.149 87.9817 127.367 84.9258 127.367V128.367ZM96.1562 125.73L96.9371 126.355C97.8503 125.214 98.7329 123.098 99.6268 120.189C100.535 117.234 101.494 113.318 102.506 108.454L101.527 108.25L100.548 108.046C99.5421 112.882 98.5973 116.73 97.715 119.602C96.8185 122.519 96.0247 124.294 95.3754 125.106L96.1562 125.73ZM101.527 108.25L102.497 108.493L102.79 107.321L101.82 107.078L100.85 106.836L100.557 108.007L101.527 108.25ZM101.82 107.078L102.798 107.287C103.843 102.391 104.542 98.4501 104.889 95.4753C105.062 93.9885 105.15 92.7245 105.146 91.6931C105.142 90.6838 105.05 89.8105 104.81 89.1557L103.871 89.5L102.932 89.8443C103.05 90.166 103.142 90.7576 103.146 91.7014C103.15 92.6232 103.071 93.8006 102.902 95.2435C102.566 98.1281 101.881 102 100.842 106.869L101.82 107.078ZM103.871 89.5L104.827 89.2059C104.396 87.8063 102.918 87.0572 101.211 86.6261C99.4148 86.1728 96.9336 85.9609 93.8125 85.9609V86.9609V87.9609C96.8763 87.9609 99.1639 88.1722 100.721 88.5653C102.366 88.9805 102.825 89.501 102.915 89.7941L103.871 89.5ZM93.8125 86.9609V85.9609H45.5703V86.9609V87.9609H93.8125V86.9609ZM147.328 133.543L148.254 133.166L148.254 133.164L147.328 133.543ZM150.551 80.6133L149.573 80.4038L149.573 80.4057L150.551 80.6133ZM152.016 73.7773L152.993 73.9869L152.994 73.9854L152.016 73.7773ZM171.254 20.8477L170.488 20.205L170.483 20.2103L171.254 20.8477ZM198.207 3.95312L198.481 4.91486L198.484 4.91407L198.207 3.95312ZM278.285 20.8477L277.357 21.2206L277.36 21.2263L278.285 20.8477ZM275.062 73.7773L276.04 73.9869L276.041 73.9849L275.062 73.7773ZM273.598 80.6133L272.62 80.4038L272.619 80.4057L273.598 80.6133ZM254.359 133.543L253.591 132.903L253.588 132.907L254.359 133.543ZM227.406 150.535L227.678 151.498L227.679 151.497L227.406 150.535ZM188.734 33.3477L189.502 33.9889L189.504 33.9862L188.734 33.3477ZM175.648 73.7773L176.626 73.9869L176.626 73.9867L175.648 73.7773ZM174.184 80.6133L173.206 80.4038L173.205 80.4067L174.184 80.6133ZM170.082 121.141L171.009 120.766L171.009 120.765L170.082 121.141ZM236.879 121.141L236.112 120.498L236.109 120.502L236.879 121.141ZM249.965 80.6133L248.987 80.4038L248.986 80.4067L249.965 80.6133ZM251.43 73.7773L252.407 73.9869L252.408 73.9867L251.43 73.7773ZM255.531 33.3477L254.604 33.7224L254.607 33.7305L254.611 33.7385L255.531 33.3477ZM196.547 153.953V152.953C169.31 152.953 153.533 146.145 148.254 133.166L147.328 133.543L146.402 133.92C152.191 148.154 169.227 154.953 196.547 154.953V153.953ZM147.328 133.543L148.254 133.164C146.584 129.082 145.96 122.709 146.495 113.926C147.028 105.173 148.702 94.1418 151.529 80.8209L150.551 80.6133L149.573 80.4057C146.735 93.7775 145.04 104.915 144.499 113.804C143.959 122.664 144.557 129.41 146.403 133.922L147.328 133.543ZM150.551 80.6133L151.529 80.8228L152.993 73.9869L152.016 73.7773L151.038 73.5678L149.573 80.4038L150.551 80.6133ZM152.016 73.7773L152.994 73.9854C155.82 60.6987 158.828 49.6793 162.013 40.9158C165.203 32.1397 168.549 25.6867 172.024 21.485L171.254 20.8477L170.483 20.2103C166.797 24.6675 163.356 31.3656 160.133 40.2326C156.906 49.1124 153.875 60.2284 151.038 73.5693L152.016 73.7773ZM171.254 20.8477L172.02 21.4903C178.649 13.5865 187.454 8.05618 198.481 4.91486L198.207 3.95312L197.933 2.99139C186.564 6.23028 177.4 11.963 170.488 20.205L171.254 20.8477ZM198.207 3.95312L198.484 4.91407C206.5 2.60536 216.718 1.4375 229.164 1.4375V0.4375V-0.5625C216.61 -0.5625 206.19 0.613387 197.93 2.99218L198.207 3.95312ZM229.164 0.4375V1.4375C256.403 1.4375 272.143 8.2458 277.357 21.2206L278.285 20.8477L279.213 20.4747C273.49 6.23597 256.483 -0.5625 229.164 -0.5625V0.4375ZM278.285 20.8477L277.36 21.2263C279.029 25.3082 279.653 31.6812 279.118 40.4646C278.585 49.218 276.911 60.2488 274.084 73.5698L275.062 73.7773L276.041 73.9849C278.878 60.6132 280.573 49.4761 281.114 40.5862C281.654 31.7263 281.056 24.9809 279.211 20.469L278.285 20.8477ZM275.062 73.7773L274.085 73.5678L272.62 80.4038L273.598 80.6133L274.575 80.8228L276.04 73.9869L275.062 73.7773ZM273.598 80.6133L272.619 80.4057C269.793 93.725 266.785 104.76 263.6 113.524C260.41 122.3 257.064 128.735 253.591 132.903L254.359 133.543L255.128 134.183C258.816 129.757 262.257 123.074 265.48 114.207C268.708 105.327 271.738 94.1943 274.576 80.8209L273.598 80.6133ZM254.359 133.543L253.588 132.907C247.025 140.871 238.224 146.432 227.134 149.573L227.406 150.535L227.679 151.497C239.115 148.258 248.282 142.491 255.131 134.179L254.359 133.543ZM227.406 150.535L227.135 149.573C219.182 151.817 208.995 152.953 196.547 152.953V153.953V154.953C209.098 154.953 219.485 153.81 227.678 151.498L227.406 150.535ZM224.086 24.168V23.168C214.795 23.168 207.134 23.9358 201.13 25.495C195.136 27.0514 190.692 29.4226 187.965 32.7091L188.734 33.3477L189.504 33.9862C191.855 31.1529 195.842 28.9343 201.632 27.4308C207.411 25.9301 214.887 25.168 224.086 25.168V24.168ZM188.734 33.3477L187.967 32.7064C185.846 35.2445 183.716 39.9684 181.533 46.7116C179.337 53.4956 177.05 62.4517 174.671 73.568L175.648 73.7773L176.626 73.9867C178.999 62.9025 181.27 54.0201 183.436 47.3275C185.615 40.5941 187.651 36.2034 189.502 33.9889L188.734 33.3477ZM175.648 73.7773L174.671 73.5678L173.206 80.4038L174.184 80.6133L175.161 80.8228L176.626 73.9869L175.648 73.7773ZM174.184 80.6133L173.205 80.4067C170.858 91.5221 169.336 100.489 168.648 107.295C168.303 110.697 168.165 113.579 168.24 115.93C168.315 118.263 168.601 120.149 169.155 121.516L170.082 121.141L171.009 120.765C170.586 119.723 170.311 118.114 170.239 115.866C170.168 113.635 170.298 110.848 170.637 107.496C171.316 100.793 172.821 91.905 175.162 80.8199L174.184 80.6133ZM170.082 121.141L169.155 121.515C170.564 125.002 174.173 127.425 179.519 128.985C184.892 130.554 192.244 131.32 201.527 131.32V130.32V129.32C192.321 129.32 185.187 128.557 180.079 127.065C174.943 125.566 172.074 123.399 171.009 120.766L170.082 121.141ZM201.527 130.32V131.32C210.818 131.32 218.479 130.553 224.484 128.993C230.478 127.437 234.921 125.066 237.648 121.779L236.879 121.141L236.109 120.502C233.758 123.335 229.771 125.554 223.981 127.057C218.202 128.558 210.726 129.32 201.527 129.32V130.32ZM236.879 121.141L237.645 121.783C239.799 119.212 241.946 114.464 244.129 107.703C246.325 100.902 248.596 91.9366 250.943 80.8199L249.965 80.6133L248.986 80.4067C246.646 91.4904 244.392 100.38 242.226 107.088C240.047 113.836 237.995 118.251 236.112 120.498L236.879 121.141ZM249.965 80.6133L250.943 80.8228L252.407 73.9869L251.43 73.7773L250.452 73.5678L248.987 80.4038L249.965 80.6133ZM251.43 73.7773L252.408 73.9867C254.787 62.871 256.326 53.9113 257.014 47.1205C257.359 43.7255 257.493 40.8525 257.41 38.5122C257.327 36.1903 257.027 34.3125 256.452 32.9568L255.531 33.3477L254.611 33.7385C255.044 34.7591 255.331 36.3482 255.411 38.5835C255.49 40.8005 255.364 43.5753 255.025 46.9186C254.346 53.6044 252.825 62.4831 250.452 73.568L251.43 73.7773ZM255.531 33.3477L256.458 32.9729C255.049 29.4863 251.44 27.0634 246.095 25.503C240.721 23.9343 233.37 23.168 224.086 23.168V24.168V25.168C233.292 25.168 240.426 25.9315 245.534 27.4228C250.671 28.9223 253.54 31.0892 254.604 33.7224L255.531 33.3477ZM289.906 133.543L290.833 133.166L290.832 133.164L289.906 133.543ZM293.129 80.6133L292.151 80.4038L292.151 80.4057L293.129 80.6133ZM294.594 73.7773L295.572 73.9869L295.572 73.9854L294.594 73.7773ZM313.832 20.8477L313.066 20.205L313.061 20.2103L313.832 20.8477ZM340.785 3.95312L341.059 4.91486L341.062 4.91407L340.785 3.95312ZM420.863 20.8477L419.935 21.2206L419.938 21.2263L420.863 20.8477ZM417.641 73.7773L418.618 73.9869L418.619 73.9849L417.641 73.7773ZM416.176 80.6133L415.198 80.4038L415.198 80.4057L416.176 80.6133ZM396.938 133.543L396.169 132.903L396.166 132.907L396.938 133.543ZM369.984 150.535L370.256 151.498L370.257 151.497L369.984 150.535ZM331.312 33.3477L332.08 33.9889L332.082 33.9862L331.312 33.3477ZM318.227 73.7773L319.204 73.9869L319.204 73.9867L318.227 73.7773ZM316.762 80.6133L315.784 80.4038L315.783 80.4067L316.762 80.6133ZM312.66 121.141L313.587 120.766L313.587 120.765L312.66 121.141ZM379.457 121.141L378.691 120.498L378.687 120.502L379.457 121.141ZM392.543 80.6133L391.565 80.4038L391.565 80.4067L392.543 80.6133ZM394.008 73.7773L394.986 73.9869L394.986 73.9867L394.008 73.7773ZM398.109 33.3477L397.182 33.7224L397.186 33.7305L397.189 33.7385L398.109 33.3477ZM339.125 153.953V152.953C311.888 152.953 296.111 146.145 290.833 133.166L289.906 133.543L288.98 133.92C294.769 148.154 311.805 154.953 339.125 154.953V153.953ZM289.906 133.543L290.832 133.164C289.162 129.082 288.539 122.709 289.073 113.926C289.606 105.173 291.28 94.1418 294.107 80.8209L293.129 80.6133L292.151 80.4057C289.313 93.7775 287.618 104.915 287.077 113.804C286.538 122.664 287.135 129.41 288.981 133.922L289.906 133.543ZM293.129 80.6133L294.107 80.8228L295.572 73.9869L294.594 73.7773L293.616 73.5678L292.151 80.4038L293.129 80.6133ZM294.594 73.7773L295.572 73.9854C298.398 60.6987 301.406 49.6793 304.591 40.9158C307.781 32.1397 311.128 25.6867 314.603 21.485L313.832 20.8477L313.061 20.2103C309.375 24.6675 305.934 31.3656 302.712 40.2326C299.484 49.1124 296.453 60.2284 293.616 73.5693L294.594 73.7773ZM313.832 20.8477L314.598 21.4903C321.227 13.5865 330.032 8.05618 341.059 4.91486L340.785 3.95312L340.511 2.99139C329.142 6.23028 319.979 11.963 313.066 20.205L313.832 20.8477ZM340.785 3.95312L341.062 4.91407C349.078 2.60536 359.296 1.4375 371.742 1.4375V0.4375V-0.5625C359.189 -0.5625 348.768 0.613387 340.508 2.99218L340.785 3.95312ZM371.742 0.4375V1.4375C398.981 1.4375 414.721 8.2458 419.935 21.2206L420.863 20.8477L421.791 20.4747C416.068 6.23597 399.061 -0.5625 371.742 -0.5625V0.4375ZM420.863 20.8477L419.938 21.2263C421.608 25.3082 422.231 31.6812 421.696 40.4646C421.163 49.218 419.489 60.2488 416.662 73.5698L417.641 73.7773L418.619 73.9849C421.456 60.6132 423.151 49.4761 423.692 40.5862C424.232 31.7263 423.635 24.9809 421.789 20.469L420.863 20.8477ZM417.641 73.7773L416.663 73.5678L415.198 80.4038L416.176 80.6133L417.154 80.8228L418.618 73.9869L417.641 73.7773ZM416.176 80.6133L415.198 80.4057C412.371 93.725 409.363 104.76 406.178 113.524C402.988 122.3 399.642 128.735 396.169 132.903L396.938 133.543L397.706 134.183C401.394 129.757 404.835 123.074 408.058 114.207C411.286 105.327 414.316 94.1943 417.154 80.8209L416.176 80.6133ZM396.938 133.543L396.166 132.907C389.603 140.871 380.802 146.432 369.712 149.573L369.984 150.535L370.257 151.497C381.693 148.258 390.86 142.491 397.709 134.179L396.938 133.543ZM369.984 150.535L369.713 149.573C361.76 151.817 351.573 152.953 339.125 152.953V153.953V154.953C351.677 154.953 362.063 153.81 370.256 151.498L369.984 150.535ZM366.664 24.168V23.168C357.373 23.168 349.712 23.9358 343.708 25.495C337.714 27.0514 333.27 29.4226 330.543 32.7091L331.312 33.3477L332.082 33.9862C334.433 31.1529 338.42 28.9343 344.21 27.4308C349.989 25.9301 357.465 25.168 366.664 25.168V24.168ZM331.312 33.3477L330.545 32.7064C328.424 35.2445 326.294 39.9684 324.111 46.7116C321.915 53.4956 319.628 62.4517 317.249 73.568L318.227 73.7773L319.204 73.9867C321.577 62.9025 323.848 54.0201 326.014 47.3275C328.193 40.5941 330.229 36.2034 332.08 33.9889L331.312 33.3477ZM318.227 73.7773L317.249 73.5678L315.784 80.4038L316.762 80.6133L317.74 80.8228L319.204 73.9869L318.227 73.7773ZM316.762 80.6133L315.783 80.4067C313.436 91.5221 311.915 100.489 311.226 107.295C310.881 110.697 310.743 113.579 310.818 115.93C310.893 118.263 311.179 120.149 311.733 121.516L312.66 121.141L313.587 120.765C313.165 119.723 312.889 118.114 312.817 115.866C312.746 113.635 312.876 110.848 313.216 107.496C313.894 100.793 315.4 91.905 317.74 80.8199L316.762 80.6133ZM312.66 121.141L311.733 121.515C313.143 125.002 316.751 127.425 322.097 128.985C327.47 130.554 334.822 131.32 344.105 131.32V130.32V129.32C334.9 129.32 327.766 128.557 322.657 127.065C317.521 125.566 314.652 123.399 313.587 120.766L312.66 121.141ZM344.105 130.32V131.32C353.396 131.32 361.057 130.553 367.062 128.993C373.056 127.437 377.5 125.066 380.227 121.779L379.457 121.141L378.687 120.502C376.336 123.335 372.349 125.554 366.559 127.057C360.78 128.558 353.304 129.32 344.105 129.32V130.32ZM379.457 121.141L380.224 121.783C382.377 119.212 384.524 114.464 386.707 107.703C388.904 100.902 391.174 91.9366 393.521 80.8199L392.543 80.6133L391.565 80.4067C389.224 91.4904 386.97 100.38 384.804 107.088C382.625 113.836 380.573 118.251 378.691 120.498L379.457 121.141ZM392.543 80.6133L393.521 80.8228L394.986 73.9869L394.008 73.7773L393.03 73.5678L391.565 80.4038L392.543 80.6133ZM394.008 73.7773L394.986 73.9867C397.365 62.871 398.904 53.9113 399.593 47.1205C399.937 43.7255 400.071 40.8525 399.988 38.5122C399.905 36.1903 399.606 34.3125 399.03 32.9568L398.109 33.3477L397.189 33.7385C397.622 34.7591 397.909 36.3482 397.989 38.5835C398.068 40.8005 397.942 43.5753 397.603 46.9186C396.924 53.6044 395.403 62.4831 393.03 73.568L394.008 73.7773ZM398.109 33.3477L399.036 32.9729C397.627 29.4863 394.018 27.0634 388.673 25.503C383.299 23.9343 375.948 23.168 366.664 23.168V24.168V25.168C375.87 25.168 383.004 25.9315 388.112 27.4228C393.249 28.9223 396.118 31.0892 397.182 33.7224L398.109 33.3477ZM523.988 111.961V112.961H524.798L524.966 112.169L523.988 111.961ZM523.891 111.961V110.961H523.096L522.917 111.735L523.891 111.961ZM511.977 138.816L511.225 138.157L511.225 138.157L511.977 138.816ZM429.848 138.816L430.759 138.405L430.758 138.403L429.848 138.816ZM431.41 101.121L432.388 101.329L432.391 101.317L431.41 101.121ZM432.582 95.2617L431.604 95.0538L431.601 95.0656L432.582 95.2617ZM447.133 57.5664L447.88 58.2308L447.887 58.2232L447.133 57.5664ZM513.246 51.3164L512.432 51.8976L513.75 53.7429L514.224 51.5253L513.246 51.3164ZM523.695 2.39062V1.39062H522.886L522.717 2.18176L523.695 2.39062ZM547.328 2.39062L548.306 2.59896L548.564 1.39062H547.328V2.39062ZM464.027 70.6523L464.773 71.3192L464.781 71.3097L464.027 70.6523ZM456.215 95.2617L455.237 95.0516L455.236 95.0586L455.234 95.0656L456.215 95.2617ZM455.043 101.121L456.021 101.331L456.022 101.324L456.024 101.317L455.043 101.121ZM452.309 125.73L453.222 125.323L453.217 125.312L453.212 125.302L452.309 125.73ZM494.984 125.73L495.738 126.388L495.739 126.386L494.984 125.73ZM502.211 103.27L501.233 103.061L501.233 103.061L502.211 103.27ZM504.359 93.2109L505.337 93.4198L505.338 93.4187L504.359 93.2109ZM506.703 70.6523L505.79 71.0603L505.79 71.0607L506.703 70.6523ZM523.988 111.961V110.961H523.891V111.961V112.961H523.988V111.961ZM523.891 111.961L522.917 111.735C520.135 123.703 516.214 132.473 511.225 138.157L511.977 138.816L512.728 139.476C518.026 133.441 522.048 124.307 524.865 112.187L523.891 111.961ZM511.977 138.816L511.225 138.157C502.644 147.937 488.212 152.953 467.641 152.953V153.953V154.953C488.476 154.953 503.601 149.878 512.728 139.476L511.977 138.816ZM467.641 153.953V152.953C447.047 152.953 435.048 147.903 430.759 138.405L429.848 138.816L428.936 139.228C433.762 149.913 446.958 154.953 467.641 154.953V153.953ZM429.848 138.816L430.758 138.403C429.39 135.394 428.782 130.83 429.04 124.6C429.297 118.394 430.409 110.642 432.388 101.329L431.41 101.121L430.432 100.913C428.44 110.285 427.305 118.158 427.042 124.517C426.779 130.853 427.375 135.793 428.937 139.23L429.848 138.816ZM431.41 101.121L432.391 101.317L433.563 95.4578L432.582 95.2617L431.601 95.0656L430.43 100.925L431.41 101.121ZM432.582 95.2617L433.56 95.4696C437.529 76.7948 442.34 64.4633 447.88 58.2308L447.133 57.5664L446.385 56.902C440.467 63.5602 435.577 76.3588 431.604 95.0538L432.582 95.2617ZM447.133 57.5664L447.887 58.2232C456.403 48.4455 470.768 43.4297 491.273 43.4297V42.4297V41.4297C470.503 41.4297 455.441 46.505 446.379 56.9096L447.133 57.5664ZM491.273 42.4297V43.4297C501.515 43.4297 508.46 46.337 512.432 51.8976L513.246 51.3164L514.06 50.7352C509.568 44.4469 501.865 41.4297 491.273 41.4297V42.4297ZM513.246 51.3164L514.224 51.5253L524.673 2.59949L523.695 2.39062L522.717 2.18176L512.268 51.1075L513.246 51.3164ZM523.695 2.39062V3.39062H547.328V2.39062V1.39062H523.695V2.39062ZM547.328 2.39062L546.35 2.18229L523.01 111.753L523.988 111.961L524.966 112.169L548.306 2.59896L547.328 2.39062ZM486.293 66.0625V65.0625C480.173 65.0625 475.199 65.4462 471.394 66.2306C467.629 67.0065 464.832 68.209 463.274 69.995L464.027 70.6523L464.781 71.3097C465.892 70.0358 468.14 68.9433 471.798 68.1894C475.415 67.4438 480.238 67.0625 486.293 67.0625V66.0625ZM464.027 70.6523L463.282 69.9855C462.628 70.7171 462 71.8026 461.382 73.1707C460.759 74.553 460.119 76.2852 459.461 78.3576C458.145 82.5027 456.738 88.0716 455.237 95.0516L456.215 95.2617L457.193 95.4719C458.687 88.5196 460.079 83.0207 461.367 78.9627C462.011 76.9335 462.625 75.2803 463.205 73.9933C463.793 72.6922 464.32 71.8245 464.773 71.3191L464.027 70.6523ZM456.215 95.2617L455.234 95.0656L454.062 100.925L455.043 101.121L456.024 101.317L457.195 95.4578L456.215 95.2617ZM455.043 101.121L454.065 100.911C452.565 107.89 451.581 113.462 451.119 117.612C450.889 119.686 450.787 121.428 450.821 122.825C450.854 124.192 451.019 125.343 451.405 126.159L452.309 125.73L453.212 125.302C453.013 124.881 452.852 124.079 452.82 122.776C452.789 121.504 452.882 119.86 453.107 117.833C453.557 113.781 454.526 108.284 456.021 101.331L455.043 101.121ZM452.309 125.73L451.396 126.138C451.853 127.163 452.724 127.971 453.856 128.61C454.988 129.248 456.445 129.754 458.192 130.148C461.684 130.937 466.506 131.32 472.621 131.32V130.32V129.32C466.561 129.32 461.911 128.938 458.633 128.197C456.993 127.827 455.741 127.376 454.838 126.868C453.936 126.359 453.448 125.828 453.222 125.323L452.309 125.73ZM472.621 130.32V131.32C478.773 131.32 483.772 130.937 487.593 130.152C491.372 129.377 494.179 128.175 495.738 126.388L494.984 125.73L494.231 125.073C493.12 126.346 490.865 127.439 487.191 128.193C483.557 128.939 478.709 129.32 472.621 129.32V130.32ZM494.984 125.73L495.739 126.386C496.962 124.979 498.151 122.307 499.354 118.566C500.573 114.777 501.851 109.744 503.189 103.478L502.211 103.27L501.233 103.061C499.902 109.295 498.64 114.255 497.45 117.953C496.245 121.7 495.155 124.008 494.229 125.075L494.984 125.73ZM502.211 103.27L503.189 103.478L505.337 93.4198L504.359 93.2109L503.381 93.0021L501.233 103.061L502.211 103.27ZM504.359 93.2109L505.338 93.4187C506.675 87.1219 507.546 82.0615 507.942 78.2508C508.14 76.3461 508.221 74.7325 508.179 73.4213C508.137 72.1333 507.973 71.0425 507.616 70.244L506.703 70.6523L505.79 71.0607C505.986 71.4992 506.14 72.2761 506.18 73.4864C506.218 74.6736 506.145 76.189 505.953 78.0441C505.567 81.7529 504.713 86.7349 503.381 93.0031L504.359 93.2109ZM506.703 70.6523L507.616 70.2444C507.158 69.2189 506.284 68.4105 505.148 67.7724C504.012 67.1341 502.549 66.6288 500.795 66.2343C497.287 65.4454 492.44 65.0625 486.293 65.0625V66.0625V67.0625C492.385 67.0625 497.06 67.4445 500.356 68.1856C502.003 68.5561 503.262 69.007 504.169 69.5161C505.075 70.0255 505.565 70.5558 505.79 71.0603L506.703 70.6523ZM544.203 138.914L543.289 139.32L543.295 139.333L544.203 138.914ZM545.766 101.316L544.789 101.103L544.787 101.111L545.766 101.316ZM547.133 95.0664L548.11 95.2801L548.111 95.275L547.133 95.0664ZM561.586 57.4688L562.337 58.1289L562.338 58.1279L561.586 57.4688ZM643.715 57.5664L644.632 57.168L644.627 57.1565L644.622 57.1451L643.715 57.5664ZM641.566 97.2148L640.588 97.0077L640.588 97.0088L641.566 97.2148ZM639.223 108.348V109.348H640.034L640.201 108.554L639.223 108.348ZM568.031 108.348V107.348H567.197L567.047 108.168L568.031 108.348ZM566.762 125.73L567.675 125.323L567.671 125.315L567.668 125.308L566.762 125.73ZM606.703 127.586L607.15 128.48L606.703 127.586ZM611.879 121.238L612.077 120.258L611.257 120.093L610.949 120.87L611.879 121.238ZM634.145 125.73L635.073 126.103L635.52 124.988L634.342 124.75L634.145 125.73ZM611.879 149.168L611.486 148.249L611.484 148.249L611.879 149.168ZM619.789 88.0352V89.0352H620.622L620.773 88.2158L619.789 88.0352ZM621.156 70.6523L622.078 70.2656L622.074 70.255L622.069 70.2444L621.156 70.6523ZM578.48 70.6523L579.223 71.3226L579.228 71.3162L579.234 71.3097L578.48 70.6523ZM572.328 88.0352L571.355 87.8035L571.062 89.0352H572.328V88.0352ZM582.094 153.953V152.953C561.499 152.953 549.463 147.934 545.111 138.495L544.203 138.914L543.295 139.333C548.188 149.946 561.412 154.953 582.094 154.953V153.953ZM544.203 138.914L545.117 138.508C543.778 135.496 543.186 130.937 543.444 124.722C543.702 118.531 544.797 110.802 546.744 101.522L545.766 101.316L544.787 101.111C542.828 110.45 541.71 118.297 541.446 124.639C541.184 130.957 541.763 135.886 543.289 139.32L544.203 138.914ZM545.766 101.316L546.743 101.53L548.11 95.2801L547.133 95.0664L546.156 94.8527L544.789 101.103L545.766 101.316ZM547.133 95.0664L548.111 95.275C552.08 76.665 556.859 64.363 562.337 58.1289L561.586 57.4688L560.835 56.8086C554.985 63.4652 550.128 76.2282 546.155 94.8578L547.133 95.0664ZM561.586 57.4688L562.338 58.1279C570.854 48.4138 585.219 43.4297 605.727 43.4297V42.4297V41.4297C584.958 41.4297 569.896 46.4716 560.834 56.8096L561.586 57.4688ZM605.727 42.4297V43.4297C626.316 43.4297 638.391 48.4788 642.808 57.9877L643.715 57.5664L644.622 57.1451C639.664 46.4718 626.413 41.4297 605.727 41.4297V42.4297ZM643.715 57.5664L642.798 57.9648C644.102 60.9682 644.635 65.6916 644.279 72.2584C643.925 78.7953 642.698 87.0407 640.588 97.0077L641.566 97.2148L642.545 97.422C644.666 87.402 645.914 79.0459 646.276 72.3666C646.636 65.7173 646.127 60.61 644.632 57.168L643.715 57.5664ZM641.566 97.2148L640.588 97.0088L638.244 108.142L639.223 108.348L640.201 108.554L642.545 97.4209L641.566 97.2148ZM639.223 108.348V107.348H568.031V108.348V109.348H639.223V108.348ZM568.031 108.348L567.047 108.168C566.166 113.001 565.614 116.898 565.398 119.847C565.291 121.321 565.265 122.578 565.33 123.608C565.394 124.618 565.548 125.495 565.856 126.153L566.762 125.73L567.668 125.308C567.519 124.989 567.385 124.41 567.326 123.483C567.269 122.576 567.289 121.416 567.393 119.993C567.601 117.147 568.139 113.33 569.015 108.527L568.031 108.348ZM566.762 125.73L565.849 126.138C566.306 127.163 567.177 127.971 568.309 128.61C569.441 129.248 570.899 129.754 572.645 130.148C576.137 130.937 580.959 131.32 587.074 131.32V130.32V129.32C581.015 129.32 576.364 128.938 573.086 128.197C571.446 127.827 570.194 127.376 569.292 126.868C568.389 126.359 567.901 125.828 567.675 125.323L566.762 125.73ZM587.074 130.32V131.32C596.516 131.32 603.274 130.419 607.15 128.48L606.703 127.586L606.256 126.692C602.841 128.399 596.512 129.32 587.074 129.32V130.32ZM606.703 127.586L607.15 128.48C609.652 127.229 611.514 124.877 612.809 121.606L611.879 121.238L610.949 120.87C609.77 123.849 608.181 125.729 606.256 126.692L606.703 127.586ZM611.879 121.238L611.681 122.219L633.947 126.711L634.145 125.73L634.342 124.75L612.077 120.258L611.879 121.238ZM634.145 125.73L633.216 125.358C628.815 136.33 621.575 143.934 611.486 148.249L611.879 149.168L612.272 150.087C622.886 145.548 630.49 137.527 635.073 126.103L634.145 125.73ZM611.879 149.168L611.484 148.249C604.236 151.365 594.459 152.953 582.094 152.953V153.953V154.953C594.599 154.953 604.678 153.351 612.274 150.087L611.879 149.168ZM619.789 88.0352L620.773 88.2158C621.654 83.4161 622.214 79.5367 622.446 76.5901C622.562 75.1172 622.597 73.8586 622.546 72.8241C622.495 71.808 622.357 70.9302 622.078 70.2656L621.156 70.6523L620.234 71.0391C620.379 71.3836 620.501 71.987 620.548 72.924C620.594 73.8426 620.564 75.0091 620.452 76.4333C620.228 79.281 619.682 83.0839 618.806 87.8545L619.789 88.0352ZM621.156 70.6523L622.069 70.2444C621.611 69.2189 620.737 68.4105 619.601 67.7724C618.465 67.1341 617.002 66.6288 615.248 66.2343C611.74 65.4454 606.893 65.0625 600.746 65.0625V66.0625V67.0625C606.838 67.0625 611.514 67.4445 614.809 68.1856C616.457 68.5561 617.716 69.007 618.622 69.5161C619.529 70.0255 620.018 70.5558 620.243 71.0603L621.156 70.6523ZM600.746 66.0625V65.0625C594.627 65.0625 589.652 65.4462 585.847 66.2306C582.083 67.0065 579.285 68.209 577.727 69.995L578.48 70.6523L579.234 71.3097C580.345 70.0358 582.593 68.9433 586.251 68.1894C589.868 67.4438 594.691 67.0625 600.746 67.0625V66.0625ZM578.48 70.6523L577.738 69.9821C576.682 71.1518 575.66 73.2743 574.632 76.1781C573.59 79.1223 572.499 83.0017 571.355 87.8035L572.328 88.0352L573.301 88.2668C574.436 83.4983 575.509 79.6954 576.518 76.8454C577.541 73.9548 578.456 72.1712 579.223 71.3226L578.48 70.6523ZM572.328 88.0352V89.0352H619.789V88.0352V87.0352H572.328V88.0352ZM744.398 152V153H745.209L745.377 152.207L744.398 152ZM720.766 152L719.787 151.793L719.532 153H720.766V152ZM732.777 95.2617L731.8 95.0516L731.799 95.0546L732.777 95.2617ZM735.609 70.6523L734.696 71.0603L734.697 71.0607L735.609 70.6523ZM692.934 70.6523L693.679 71.3192L693.687 71.3097L692.934 70.6523ZM685.121 95.2617L684.143 95.0516L684.143 95.0546L685.121 95.2617ZM673.109 152V153H673.92L674.088 152.207L673.109 152ZM649.477 152L648.498 151.793L648.243 153H649.477V152ZM661.488 95.2617L660.51 95.0538L660.51 95.0546L661.488 95.2617ZM676.039 57.5664L676.787 58.2308L676.793 58.2232L676.039 57.5664ZM758.168 57.5664L759.085 57.168L759.08 57.1565L759.075 57.1451L758.168 57.5664ZM756.41 95.2617L755.432 95.0538L755.432 95.0546L756.41 95.2617ZM744.398 152V151H720.766V152V153H744.398V152ZM720.766 152L721.744 152.207L733.756 95.4688L732.777 95.2617L731.799 95.0546L719.787 151.793L720.766 152ZM732.777 95.2617L733.755 95.4719C735.255 88.4932 736.247 82.9231 736.725 78.7745C736.963 76.7012 737.076 74.9613 737.055 73.5668C737.034 72.2026 736.885 71.0559 736.522 70.244L735.609 70.6523L734.697 71.0607C734.887 71.4858 735.035 72.2922 735.055 73.5973C735.074 74.872 734.971 76.5176 734.738 78.5458C734.271 82.6003 733.294 88.0979 731.8 95.0516L732.777 95.2617ZM735.609 70.6523L736.522 70.2444C736.064 69.2189 735.19 68.4105 734.054 67.7724C732.918 67.1341 731.455 66.6288 729.701 66.2343C726.193 65.4454 721.346 65.0625 715.199 65.0625V66.0625V67.0625C721.292 67.0625 725.967 67.4445 729.262 68.1856C730.91 68.5561 732.169 69.007 733.075 69.5161C733.982 70.0255 734.471 70.5558 734.696 71.0603L735.609 70.6523ZM715.199 66.0625V65.0625C709.08 65.0625 704.105 65.4462 700.3 66.2306C696.536 67.0065 693.738 68.209 692.18 69.995L692.934 70.6523L693.687 71.3097C694.798 70.0358 697.046 68.9433 700.704 68.1894C704.321 67.4438 709.144 67.0625 715.199 67.0625V66.0625ZM692.934 70.6523L692.188 69.9855C691.534 70.7171 690.906 71.8026 690.289 73.1707C689.665 74.553 689.025 76.2852 688.367 78.3576C687.051 82.5027 685.644 88.0716 684.143 95.0516L685.121 95.2617L686.099 95.4719C687.593 88.5196 688.985 83.0207 690.273 78.9627C690.918 76.9335 691.531 75.2803 692.112 73.9933C692.699 72.6922 693.227 71.8245 693.679 71.3191L692.934 70.6523ZM685.121 95.2617L684.143 95.0546L672.131 151.793L673.109 152L674.088 152.207L686.099 95.4688L685.121 95.2617ZM673.109 152V151H649.477V152V153H673.109V152ZM649.477 152L650.455 152.207L662.467 95.4688L661.488 95.2617L660.51 95.0546L648.498 151.793L649.477 152ZM661.488 95.2617L662.466 95.4696C666.436 76.7948 671.246 64.4633 676.786 58.2308L676.039 57.5664L675.292 56.902C669.373 63.5602 664.484 76.3588 660.51 95.0538L661.488 95.2617ZM676.039 57.5664L676.793 58.2232C685.309 48.4455 699.674 43.4297 720.18 43.4297V42.4297V41.4297C699.409 41.4297 684.347 46.505 675.285 56.9096L676.039 57.5664ZM720.18 42.4297V43.4297C740.769 43.4297 752.844 48.4788 757.261 57.9877L758.168 57.5664L759.075 57.1451C754.117 46.4718 740.866 41.4297 720.18 41.4297V42.4297ZM758.168 57.5664L757.251 57.9648C758.559 60.9766 759.12 65.5453 758.829 71.7776C758.54 77.9858 757.412 85.7402 755.432 95.0538L756.41 95.2617L757.388 95.4696C759.38 86.0983 760.531 78.2277 760.827 71.8708C761.122 65.538 760.577 60.6015 759.085 57.168L758.168 57.5664ZM756.41 95.2617L755.432 95.0546L743.42 151.793L744.398 152L745.377 152.207L757.388 95.4688L756.41 95.2617ZM841.566 68.0156V69.0156H842.378L842.545 68.2218L841.566 68.0156ZM807.387 68.0156V67.0156H806.577L806.409 67.8071L807.387 68.0156ZM800.746 99.168L799.768 98.9595L799.767 98.9622L800.746 99.168ZM798.012 123.777L798.925 123.369L798.925 123.369L798.012 123.777ZM830.141 128.367L831.119 128.573L831.373 127.367H830.141V128.367ZM825.16 152V153H825.971L826.139 152.206L825.16 152ZM775.551 136.863L776.462 136.452L776.461 136.449L775.551 136.863ZM777.113 99.168L776.135 98.9597L776.135 98.9601L777.113 99.168ZM797.719 2.39062V1.39062H796.909L796.741 2.18238L797.719 2.39062ZM821.352 2.39062L822.329 2.59984L822.588 1.39062H821.352V2.39062ZM812.367 44.3828L811.389 44.1736L811.131 45.3828H812.367V44.3828ZM846.547 44.3828L847.525 44.589L847.78 43.3828H846.547V44.3828ZM841.566 68.0156V67.0156H807.387V68.0156V69.0156H841.566V68.0156ZM807.387 68.0156L806.409 67.8071L799.768 98.9595L800.746 99.168L801.724 99.3765L808.365 68.2241L807.387 68.0156ZM800.746 99.168L799.767 98.9622C798.3 105.941 797.332 111.511 796.871 115.659C796.641 117.732 796.535 119.472 796.56 120.866C796.585 122.23 796.736 123.375 797.099 124.186L798.012 123.777L798.925 123.369C798.734 122.942 798.584 122.135 798.56 120.829C798.537 119.554 798.634 117.908 798.859 115.88C799.31 111.825 800.262 106.327 801.725 99.3737L800.746 99.168ZM798.012 123.777L797.099 124.185C797.556 125.21 798.427 126.018 799.559 126.656C800.691 127.295 802.149 127.801 803.895 128.195C807.387 128.984 812.209 129.367 818.324 129.367V128.367V127.367C812.265 127.367 807.614 126.985 804.336 126.244C802.696 125.874 801.444 125.423 800.542 124.914C799.639 124.405 799.151 123.875 798.925 123.369L798.012 123.777ZM818.324 128.367V129.367H830.141V128.367V127.367H818.324V128.367ZM830.141 128.367L829.162 128.161L824.182 151.794L825.16 152L826.139 152.206L831.119 128.573L830.141 128.367ZM825.16 152V151H813.344V152V153H825.16V152ZM813.344 152V151C792.75 151 780.751 145.949 776.462 136.452L775.551 136.863L774.639 137.275C779.465 147.959 792.661 153 813.344 153V152ZM775.551 136.863L776.461 136.449C775.094 133.441 774.485 128.877 774.743 122.647C775.001 116.441 776.112 108.689 778.091 99.3759L777.113 99.168L776.135 98.9601C774.143 108.332 773.009 116.205 772.745 122.564C772.482 128.899 773.078 133.84 774.64 137.277L775.551 136.863ZM777.113 99.168L778.091 99.3762L798.697 2.59887L797.719 2.39062L796.741 2.18238L776.135 98.9597L777.113 99.168ZM797.719 2.39062V3.39062H821.352V2.39062V1.39062H797.719V2.39062ZM821.352 2.39062L820.374 2.18141L811.389 44.1736L812.367 44.3828L813.345 44.592L822.329 2.59984L821.352 2.39062ZM812.367 44.3828V45.3828H846.547V44.3828V43.3828H812.367V44.3828ZM846.547 44.3828L845.568 44.1766L840.588 67.8094L841.566 68.0156L842.545 68.2218L847.525 44.589L846.547 44.3828Z" fill="black" mask="url(#path-1-inside-1_8_2)"/>
</svg>
